REM DIRINDEX 1\3,1\2\4,1\2\5,1\2\6
REM DIRNAME cjc137,folder01,folder02,folder03,folder04,folder05
TITLE ""
FILE "022.mp3" MP3
  TRACK 01 AUDIO
    TITLE "4:cjc137_0885"
    INDEX 01 00:00:00
  TRACK 02 AUDIO
    TITLE "0:"
    INDEX 01 00:01:09
  TRACK 03 AUDIO
    TITLE "6:cjc137_0886"
    INDEX 01 00:01:17
  TRACK 04 AUDIO
    TITLE "0:"
    INDEX 01 00:02:24
  TRACK 05 AUDIO
    TITLE "5:cjc137_0887"
    INDEX 01 00:02:32
  TRACK 06 AUDIO
    TITLE "0:"
    INDEX 01 00:03:39
  TRACK 07 AUDIO
    TITLE "4:cjc137_0888"
    INDEX 01 00:04:46
  TRACK 08 AUDIO
    TITLE "0:"
    INDEX 01 00:05:71
  TRACK 09 AUDIO
    TITLE "6:cjc137_0889"
    INDEX 01 00:06:04
  TRACK 10 AUDIO
    TITLE "0:"
    INDEX 01 00:07:27
  TRACK 11 AUDIO
    TITLE "5:cjc137_0890"
    INDEX 01 00:07:35
  TRACK 12 AUDIO
    TITLE "0:"
    INDEX 01 00:08:60
  TRACK 13 AUDIO
    TITLE "4:cjc137_0891"
    INDEX 01 00:09:67
  TRACK 14 AUDIO
    TITLE "0:"
    INDEX 01 00:11:03
  TRACK 15 AUDIO
    TITLE "6:cjc137_0892"
    INDEX 01 00:11:09
  TRACK 16 AUDIO
    TITLE "0:"
    INDEX 01 00:12:12
  TRACK 17 AUDIO
    TITLE "5:cjc137_0893"
    INDEX 01 00:12:20
  TRACK 18 AUDIO
    TITLE "0:"
    INDEX 01 00:13:30
  TRACK 19 AUDIO
    TITLE "4:cjc137_0894"
    INDEX 01 00:14:39
  TRACK 20 AUDIO
    TITLE "0:"
    INDEX 01 00:15:38
  TRACK 21 AUDIO
    TITLE "6:cjc137_0895"
    INDEX 01 00:15:50
  TRACK 22 AUDIO
    TITLE "0:"
    INDEX 01 00:16:63
  TRACK 23 AUDIO
    TITLE "5:cjc137_0896"
    INDEX 01 00:16:69
  TRACK 24 AUDIO
    TITLE "0:"
    INDEX 01 00:17:70
  TRACK 25 AUDIO
    TITLE "4:cjc137_0897"
    INDEX 01 00:19:05
  TRACK 26 AUDIO
    TITLE "0:"
    INDEX 01 00:20:12
  TRACK 27 AUDIO
    TITLE "6:cjc137_0898"
    INDEX 01 00:20:20
  TRACK 28 AUDIO
    TITLE "0:"
    INDEX 01 00:21:19
  TRACK 29 AUDIO
    TITLE "5:cjc137_0899"
    INDEX 01 00:21:25
  TRACK 30 AUDIO
    TITLE "0:"
    INDEX 01 00:22:32
  TRACK 31 AUDIO
    TITLE "4:cjc137_0900"
    INDEX 01 00:23:40
  TRACK 32 AUDIO
    TITLE "0:"
    INDEX 01 00:24:47
  TRACK 33 AUDIO
    TITLE "6:cjc137_0901"
    INDEX 01 00:24:61
  TRACK 34 AUDIO
    TITLE "0:"
    INDEX 01 00:25:68
  TRACK 35 AUDIO
    TITLE "5:cjc137_0902"
    INDEX 01 00:26:01
  TRACK 36 AUDIO
    TITLE "0:"
    INDEX 01 00:27:08
  TRACK 37 AUDIO
    TITLE "4:cjc137_0903"
    INDEX 01 00:28:19
  TRACK 38 AUDIO
    TITLE "0:"
    INDEX 01 00:29:27
  TRACK 39 AUDIO
    TITLE "6:cjc137_0904"
    INDEX 01 00:29:34
  TRACK 40 AUDIO
    TITLE "0:"
    INDEX 01 00:31:35
  TRACK 41 AUDIO
    TITLE "5:cjc137_0905"
    INDEX 01 00:31:43
  TRACK 42 AUDIO
    TITLE "0:"
    INDEX 01 00:32:50
  TRACK 43 AUDIO
    TITLE "4:cjc137_0906"
    INDEX 01 00:33:58
  TRACK 44 AUDIO
    TITLE "0:"
    INDEX 01 00:34:65
  TRACK 45 AUDIO
    TITLE "6:cjc137_0907"
    INDEX 01 00:35:00
  TRACK 46 AUDIO
    TITLE "0:"
    INDEX 01 00:36:33
  TRACK 47 AUDIO
    TITLE "5:cjc137_0908"
    INDEX 01 00:36:42
  TRACK 48 AUDIO
    TITLE "0:"
    INDEX 01 00:37:50
  TRACK 49 AUDIO
    TITLE "4:cjc137_0909"
    INDEX 01 00:38:59
  TRACK 50 AUDIO
    TITLE "0:"
    INDEX 01 00:40:03
  TRACK 51 AUDIO
    TITLE "6:cjc137_0910"
    INDEX 01 00:40:11
  TRACK 52 AUDIO
    TITLE "0:"
    INDEX 01 00:41:12
  TRACK 53 AUDIO
    TITLE "5:cjc137_0911"
    INDEX 01 00:41:18
  TRACK 54 AUDIO
    TITLE "0:"
    INDEX 01 00:42:39
  TRACK 55 AUDIO
    TITLE "4:cjc137_0912"
    INDEX 01 00:43:46
  TRACK 56 AUDIO
    TITLE "0:"
    INDEX 01 00:44:63
  TRACK 57 AUDIO
    TITLE "6:cjc137_0913"
    INDEX 01 00:44:69
  TRACK 58 AUDIO
    TITLE "0:"
    INDEX 01 00:46:00
  TRACK 59 AUDIO
    TITLE "5:cjc137_0914"
    INDEX 01 00:46:06
  TRACK 60 AUDIO
    TITLE "0:"
    INDEX 01 00:47:21
  TRACK 61 AUDIO
    TITLE "4:cjc137_0915"
    INDEX 01 00:48:28
  TRACK 62 AUDIO
    TITLE "0:"
    INDEX 01 00:49:37
  TRACK 63 AUDIO
    TITLE "6:cjc137_0916"
    INDEX 01 00:49:43
  TRACK 64 AUDIO
    TITLE "0:"
    INDEX 01 00:51:09
  TRACK 65 AUDIO
    TITLE "5:cjc137_0917"
    INDEX 01 00:51:15
  TRACK 66 AUDIO
    TITLE "0:"
    INDEX 01 00:52:24
  TRACK 67 AUDIO
    TITLE "4:cjc137_0918"
    INDEX 01 00:53:29
  TRACK 68 AUDIO
    TITLE "0:"
    INDEX 01 00:54:38
  TRACK 69 AUDIO
    TITLE "6:cjc137_0919"
    INDEX 01 00:54:48
  TRACK 70 AUDIO
    TITLE "0:"
    INDEX 01 00:55:59
  TRACK 71 AUDIO
    TITLE "5:cjc137_0920"
    INDEX 01 00:55:65
  TRACK 72 AUDIO
    TITLE "0:"
    INDEX 01 00:56:72
  TRACK 73 AUDIO
    TITLE "4:cjc137_0921"
    INDEX 01 00:58:05
  TRACK 74 AUDIO
    TITLE "0:"
    INDEX 01 00:59:12
  TRACK 75 AUDIO
    TITLE "6:cjc137_0922"
    INDEX 01 00:59:22
  TRACK 76 AUDIO
    TITLE "0:"
    INDEX 01 01:00:33
  TRACK 77 AUDIO
    TITLE "5:cjc137_0923"
    INDEX 01 01:00:39
  TRACK 78 AUDIO
    TITLE "0:"
    INDEX 01 01:01:46
  TRACK 79 AUDIO
    TITLE "4:cjc137_0924"
    INDEX 01 01:02:55
  TRACK 80 AUDIO
    TITLE "0:"
    INDEX 01 01:03:65
  TRACK 81 AUDIO
    TITLE "6:cjc137_0925"
    INDEX 01 01:03:73
  TRACK 82 AUDIO
    TITLE "0:"
    INDEX 01 01:05:26
  TRACK 83 AUDIO
    TITLE "5:cjc137_0926"
    INDEX 01 01:05:34
  TRACK 84 AUDIO
    TITLE "0:"
    INDEX 01 01:06:45
